<?xml version="1.0" standalone="no"?>
<!DOCTYPE svg PUBLIC "-//W3C//DTD SVG 20010904//EN"
 "http://www.w3.org/TR/2001/REC-SVG-20010904/DTD/svg10.dtd">
<svg version="1.0" xmlns="http://www.w3.org/2000/svg"
 width="1280.000000pt" height="1116.000000pt" viewBox="0 0 1280.000000 1116.000000"
 preserveAspectRatio="xMidYMid meet">
<g transform="translate(0.000000,1116.000000) scale(0.100000,-0.100000)"
fill="#000000" stroke="none">
<path d="M7907 10663 c-15 -15 -37 -18 -135 -19 -106 0 -124 -3 -187 -29 -52
-21 -96 -31 -170 -38 -200 -16 -292 -18 -367 -7 -71 10 -79 9 -96 -8 -16 -16
-45 -21 -198 -31 -205 -13 -334 -34 -350 -55 -7 -11 -54 -20 -165 -31 -178
-19 -182 -20 -354 -81 -173 -61 -207 -70 -313 -83 -92 -11 -189 -38 -252 -69
-24 -12 -43 -33 -61 -67 l-25 -50 -95 -12 c-110 -15 -401 -71 -435 -84 -17 -6
-24 -16 -24 -34 0 -43 -79 -109 -148 -124 -84 -18 -281 -77 -337 -101 -28 -11
-59 -31 -70 -45 -19 -22 -164 -86 -379 -166 -84 -32 -369 -161 -423 -192 -18
-11 -33 -23 -33 -28 0 -5 -35 -26 -77 -47 -43 -20 -94 -54 -114 -74 -26 -27
-63 -48 -127 -73 -114 -44 -173 -79 -277 -163 -46 -37 -114 -84 -151 -105 -38
-21 -88 -52 -110 -70 -46 -36 -73 -52 -189 -116 -44 -24 -105 -61 -135 -82
-30 -21 -89 -57 -132 -80 -42 -23 -81 -52 -86 -64 -7 -15 -66 -52 -179 -110
-215 -111 -224 -119 -180 -156 22 -19 22 -19 2 -35 -11 -8 -49 -31 -85 -51
-140 -76 -269 -157 -275 -171 -3 -8 2 -23 10 -32 15 -17 11 -22 -54 -76 -39
-32 -82 -75 -96 -95 -14 -21 -64 -65 -117 -101 -64 -43 -94 -70 -96 -85 -5
-31 26 -30 74 2 20 14 43 25 50 25 22 0 16 -29 -11 -56 -38 -38 -23 -48 57
-40 67 6 119 1 117 -13 0 -3 -41 -40 -91 -81 -50 -41 -152 -142 -227 -223 -75
-81 -170 -173 -211 -204 -210 -158 -264 -223 -262 -318 0 -40 -4 -48 -46 -87
-26 -23 -67 -67 -90 -96 l-44 -53 26 -40 c21 -31 32 -39 56 -39 28 0 30 -3 30
-35 0 -34 1 -35 42 -35 l41 0 -24 -26 c-13 -14 -60 -56 -104 -92 -44 -36 -108
-93 -143 -126 l-62 -60 0 -2963 0 -2963 4851 0 c4615 0 4850 1 4845 18 -2 9
-10 44 -17 77 -16 84 -56 194 -149 410 -44 103 -82 192 -83 198 -4 24 27 11
35 -13 4 -14 4 1 1 32 -3 32 -3 58 0 58 3 0 14 -36 23 -81 10 -44 23 -88 31
-97 11 -15 13 -10 14 33 l1 50 15 -49 c10 -34 18 -45 23 -36 6 9 11 -9 16 -48
9 -79 20 -88 17 -14 l-3 57 15 -35 c15 -34 15 -34 10 -5 -5 27 -4 28 9 12 8
-10 17 -39 21 -65 5 -34 9 -42 14 -28 5 14 11 3 20 -37 14 -62 34 -89 26 -35
l-5 33 11 -35 c11 -36 45 -80 62 -80 5 0 15 8 22 17 11 15 15 12 34 -24 23
-46 77 -94 98 -86 22 9 15 40 -38 156 -63 138 -92 217 -84 226 4 3 38 -11 77
-32 40 -22 74 -35 79 -30 12 12 -148 307 -280 518 -59 94 -113 185 -121 204
-8 19 -28 53 -45 75 -51 67 -51 69 -9 51 44 -18 207 -32 250 -21 l29 8 -89 84
c-48 47 -86 87 -83 90 2 2 17 -1 33 -7 37 -16 52 -13 154 22 248 87 490 244
865 562 505 427 798 795 1092 1371 309 605 397 868 473 1411 53 385 73 792 51
1057 -25 296 -115 735 -205 993 -145 422 -268 670 -520 1045 -83 124 -150 230
-148 237 1 6 -2 14 -8 18 -5 3 -10 10 -10 14 0 4 50 -9 110 -30 101 -33 131
-36 115 -9 -3 6 -1 10 6 10 8 0 7 5 -2 17 -16 18 -19 19 74 -11 26 -8 47 -13
47 -10 0 2 -22 18 -50 35 -27 17 -50 35 -50 40 0 12 61 2 109 -17 46 -19 57
-17 36 6 -18 20 -17 20 8 20 14 0 27 5 29 12 3 8 16 7 47 -6 24 -9 46 -14 49
-12 3 3 -12 13 -34 21 -71 29 -83 36 -47 29 41 -7 59 2 42 22 -10 12 -8 18 9
30 31 21 27 41 -8 49 -37 8 -39 21 -4 29 24 6 25 8 10 25 -20 22 -20 31 -2 31
7 0 19 7 26 15 10 12 6 17 -22 29 l-33 14 32 1 c30 1 58 20 31 22 -7 0 -2 5
12 10 l25 10 -25 19 -25 20 23 0 c21 0 41 24 29 36 -3 3 -28 1 -56 -4 -58 -11
-59 -3 -1 23 53 24 51 38 -4 30 -40 -6 -44 -5 -48 18 -3 16 1 28 14 36 10 6
18 20 18 32 0 11 5 30 11 41 8 16 8 22 -2 29 -11 6 -10 12 4 27 9 10 17 21 17
25 0 11 -33 -5 -57 -26 -31 -27 -58 -16 -48 21 4 15 9 53 10 84 2 31 6 61 9
67 14 22 -14 19 -32 -4 -23 -29 -31 -32 -27 -7 2 9 6 34 9 55 6 47 -13 50 -44
7 -33 -47 -65 -37 -39 12 14 25 6 33 -20 18 -20 -10 -21 -8 -21 50 0 33 -3 60
-7 60 -3 0 -15 -7 -25 -17 -17 -15 -18 -14 -18 19 0 19 -6 43 -14 54 -14 18
-15 18 -24 -5 l-9 -25 -6 25 c-4 14 -20 43 -37 63 -24 31 -28 42 -19 58 11 21
6 48 -10 48 -5 0 -13 -10 -17 -22 -7 -22 -8 -22 -19 6 -10 24 -10 36 1 62 17
41 17 44 0 44 -7 0 -17 -10 -21 -22 -8 -22 -8 -22 -12 4 -2 14 -11 32 -19 38
-8 7 -14 23 -14 35 0 27 -64 83 -132 115 -31 14 -50 31 -58 51 -7 16 -18 29
-24 30 -6 0 -45 2 -86 3 -41 1 -87 5 -102 10 -21 6 -27 4 -30 -10 -2 -13 -10
-7 -31 23 -36 52 -150 108 -213 104 -31 -2 -48 3 -70 22 -35 29 -69 40 -189
63 -65 12 -118 31 -190 67 -68 34 -119 53 -158 58 -42 5 -71 16 -110 43 -53
36 -117 57 -117 38 0 -6 19 -26 43 -46 l42 -36 -33 11 c-18 6 -45 9 -60 6 -19
-4 -65 11 -157 50 -71 31 -155 66 -185 79 -69 30 -100 31 -100 5 0 -11 -4 -22
-9 -26 -20 -12 -159 18 -236 50 -145 61 -255 85 -469 100 -27 2 -70 8 -95 14
-25 5 -62 9 -81 8 -20 0 -90 21 -166 52 -186 73 -292 101 -389 101 -64 0 -84
-4 -98 -17z m2823 -6785 c22 -74 23 -155 7 -321 -9 -89 -21 -241 -27 -337 -18
-330 -126 -696 -277 -944 -116 -191 -266 -358 -478 -532 l-46 -37 -24 23 c-45
42 -79 111 -81 162 -1 62 -55 144 -193 293 -170 183 -170 183 -198 291 -27
107 -71 203 -143 309 -69 101 -113 151 -223 249 -53 48 -117 114 -142 146
l-45 59 57 6 c32 4 121 18 198 31 387 65 537 121 1175 440 223 112 410 203
416 203 6 1 17 -18 24 -41z"/>
</g>
</svg>
